<?xml version="1.0" encoding="utf-8" standalone="no"?>
<!DOCTYPE svg PUBLIC "-//W3C//DTD SVG 1.1//EN"
  "http://www.w3.org/Graphics/SVG/1.1/DTD/svg11.dtd">
<!-- Created with matplotlib (https://matplotlib.org/) -->
<svg height="355.987578pt" version="1.1" viewBox="0 0 576 355.987578" width="576pt" xmlns="http://www.w3.org/2000/svg" xmlns:xlink="http://www.w3.org/1999/xlink">
 <defs>
  <style type="text/css">
*{stroke-linecap:butt;stroke-linejoin:round;}
  </style>
 </defs>
 <g id="figure_1">
  <g id="patch_1">
   <path d="M 0 355.987578 
L 576 355.987578 
L 576 0 
L 0 0 
z
" style="fill:#ffffff;"/>
  </g>
  <g id="axes_1">
   <g id="patch_2">
    <path d="M 72 316.828944 
L 518.4 316.828944 
L 518.4 42.718509 
L 72 42.718509 
z
" style="fill:#ffffff;"/>
   </g>
   <g id="matplotlib.axis_1">
    <g id="xtick_1">
     <g id="line2d_1">
      <defs>
       <path d="M 0 0 
L 0 -8 
" id="m5455b66268" style="stroke:#222222;"/>
      </defs>
      <g>
       <use style="fill:#222222;stroke:#222222;" x="88.880672" xlink:href="#m5455b66268" y="316.828944"/>
      </g>
     </g>
     <g id="line2d_2">
      <defs>
       <path d="M 0 0 
L 0 8 
" id="mf18bfe5197" style="stroke:#222222;"/>
      </defs>
      <g>
       <use style="fill:#222222;stroke:#222222;" x="88.880672" xlink:href="#mf18bfe5197" y="42.718509"/>
      </g>
     </g>
     <g id="text_1">
      <!-- 0 -->
      <defs>
       <path d="M 24.90625 59 
C 32.09375 59 37 47 37 31.703125 
C 37 16.40625 32.59375 3.296875 23.90625 3.296875 
C 16.703125 3.296875 11.59375 15.90625 11.59375 31.203125 
C 11.59375 46.5 16.703125 59 24.90625 59 
z
M 24.296875 62.59375 
C 10.796875 62.59375 3 48.203125 3 31.203125 
C 3 14.203125 11 -0.296875 24.296875 -0.296875 
C 37.796875 -0.296875 45.59375 14.203125 45.59375 31.203125 
C 45.59375 48.203125 38 62.59375 24.296875 62.59375 
z
" id="Cochineal-Roman-48"/>
      </defs>
      <g style="fill:#222222;" transform="translate(84.515672 332.532381)scale(0.18 -0.18)">
       <use xlink:href="#Cochineal-Roman-48"/>
      </g>
     </g>
    </g>
    <g id="xtick_2">
     <g id="line2d_3">
      <g>
       <use style="fill:#222222;stroke:#222222;" x="157.085409" xlink:href="#m5455b66268" y="316.828944"/>
      </g>
     </g>
     <g id="line2d_4">
      <g>
       <use style="fill:#222222;stroke:#222222;" x="157.085409" xlink:href="#mf18bfe5197" y="42.718509"/>
      </g>
     </g>
     <g id="text_2">
      <!-- 200 -->
      <defs>
       <path d="M 44.296875 14.59375 
C 43.90625 14.90625 42.703125 15.203125 42.296875 15.203125 
C 41.703125 15.203125 41.40625 15.09375 41.203125 14.59375 
C 39.09375 9.5 36.90625 7.09375 33 7.09375 
L 13.59375 7.09375 
C 18 12 28 23.09375 34.90625 31.59375 
C 38.296875 35.796875 40.5 40.796875 40.5 46.40625 
C 40.5 54.703125 33 62.703125 23.59375 62.703125 
C 13.296875 62.703125 6.296875 51.90625 5.59375 49.5 
C 5.59375 49.09375 6.703125 47.90625 7.5 47.90625 
C 8.703125 49.90625 13.59375 56.296875 21.40625 56.296875 
C 27.59375 56.296875 32.203125 51.203125 32.203125 44.5 
C 32.203125 39.703125 31.5 35.796875 27.5 29.90625 
C 21.796875 21.59375 12.40625 10.5 4.203125 1.40625 
C 4.203125 1 4.796875 0.203125 5.203125 0 
L 39 0 
C 39.59375 1.796875 42.296875 9.796875 44.296875 14.59375 
z
" id="Cochineal-Roman-50"/>
      </defs>
      <g style="fill:#222222;" transform="translate(143.990409 332.532381)scale(0.18 -0.18)">
       <use xlink:href="#Cochineal-Roman-50"/>
       <use x="48.499985" xlink:href="#Cochineal-Roman-48"/>
       <use x="96.999969" xlink:href="#Cochineal-Roman-48"/>
      </g>
     </g>
    </g>
    <g id="xtick_3">
     <g id="line2d_5">
      <g>
       <use style="fill:#222222;stroke:#222222;" x="225.290145" xlink:href="#m5455b66268" y="316.828944"/>
      </g>
     </g>
     <g id="line2d_6">
      <g>
       <use style="fill:#222222;stroke:#222222;" x="225.290145" xlink:href="#mf18bfe5197" y="42.718509"/>
      </g>
     </g>
     <g id="text_3">
      <!-- 400 -->
      <defs>
       <path d="M 37.40625 62.90625 
C 36.59375 62.90625 35 61.203125 34.40625 60.40625 
L 2.59375 18.796875 
C 2.59375 18.203125 2.90625 17.40625 3.59375 17 
L 31.09375 17 
L 31.09375 0.203125 
C 31.09375 -0.5 32.296875 -0.59375 34.59375 -0.59375 
C 38.40625 -0.59375 38.796875 -0.09375 38.796875 -0.09375 
L 38.796875 17 
L 45.59375 17 
C 45.796875 17.296875 45.90625 17.703125 45.90625 18.59375 
C 45.90625 20.703125 45.203125 22.59375 44.59375 22.59375 
L 38.796875 22.59375 
L 38.796875 61.09375 
C 38.796875 61.90625 38.40625 62.90625 37.40625 62.90625 
z
M 31.09375 51.203125 
L 31.09375 22.59375 
L 9.203125 22.59375 
z
" id="Cochineal-Roman-52"/>
      </defs>
      <g style="fill:#222222;" transform="translate(212.195145 332.532381)scale(0.18 -0.18)">
       <use xlink:href="#Cochineal-Roman-52"/>
       <use x="48.499985" xlink:href="#Cochineal-Roman-48"/>
       <use x="96.999969" xlink:href="#Cochineal-Roman-48"/>
      </g>
     </g>
    </g>
    <g id="xtick_4">
     <g id="line2d_7">
      <g>
       <use style="fill:#222222;stroke:#222222;" x="293.494882" xlink:href="#m5455b66268" y="316.828944"/>
      </g>
     </g>
     <g id="line2d_8">
      <g>
       <use style="fill:#222222;stroke:#222222;" x="293.494882" xlink:href="#mf18bfe5197" y="42.718509"/>
      </g>
     </g>
     <g id="text_4">
      <!-- 600 -->
      <defs>
       <path d="M 13.59375 29.90625 
C 16.796875 33.40625 20.296875 33.796875 23.09375 33.796875 
C 31.90625 33.796875 35.40625 26.296875 35.40625 18 
C 35.40625 9.203125 30.90625 2.59375 24.703125 2.59375 
C 16.90625 2.59375 13.203125 14.40625 13.203125 23.203125 
C 13.203125 25.5 13.296875 27.796875 13.59375 29.90625 
z
M 25.90625 38.59375 
C 22.59375 38.59375 17.796875 37 14.40625 34.203125 
C 18.796875 51.5 33.296875 57.796875 41.5 60.40625 
C 41.5 61 41.203125 63.203125 40.296875 63.203125 
C 32.09375 61.09375 21.09375 55 14.203125 47.40625 
C 8 40.703125 4.796875 31.5 4.796875 21.5 
C 4.796875 11 12.09375 -0.59375 23.90625 -0.59375 
C 35 -0.59375 43.796875 8.90625 43.796875 19.796875 
C 43.796875 26.796875 39.59375 38.59375 25.90625 38.59375 
z
" id="Cochineal-Roman-54"/>
      </defs>
      <g style="fill:#222222;" transform="translate(280.399882 332.532381)scale(0.18 -0.18)">
       <use xlink:href="#Cochineal-Roman-54"/>
       <use x="48.499985" xlink:href="#Cochineal-Roman-48"/>
       <use x="96.999969" xlink:href="#Cochineal-Roman-48"/>
      </g>
     </g>
    </g>
    <g id="xtick_5">
     <g id="line2d_9">
      <g>
       <use style="fill:#222222;stroke:#222222;" x="361.699618" xlink:href="#m5455b66268" y="316.828944"/>
      </g>
     </g>
     <g id="line2d_10">
      <g>
       <use style="fill:#222222;stroke:#222222;" x="361.699618" xlink:href="#mf18bfe5197" y="42.718509"/>
      </g>
     </g>
     <g id="text_5">
      <!-- 800 -->
      <defs>
       <path d="M 24.203125 2.59375 
C 19 2.59375 13.59375 7.296875 13.59375 15.296875 
C 13.59375 21.5 15.90625 25.5 21.296875 28.90625 
C 21.40625 29 21.59375 29 21.703125 29 
C 22 29 22.09375 28.90625 22.296875 28.796875 
C 23.703125 28 34.796875 21.59375 34.796875 13.5 
C 34.796875 6.90625 30.59375 2.59375 24.203125 2.59375 
z
M 24.203125 59.40625 
C 30.09375 59.40625 33.796875 53.203125 33.796875 47.5 
C 33.796875 42.09375 31.09375 38.09375 27.09375 35.5 
C 26.796875 35.296875 26.796875 35.40625 26.59375 35.40625 
C 26.40625 35.40625 26.203125 35.40625 26 35.5 
C 22.296875 37.59375 15.796875 41.09375 15.796875 48.59375 
C 15.796875 54.5 19.5 59.40625 24.203125 59.40625 
z
M 24.796875 62.796875 
C 16.203125 62.796875 8.59375 55.203125 8.59375 46.90625 
C 8.59375 39.703125 14.5 34 18.59375 31.59375 
C 18.796875 31.5 18.90625 31.296875 18.59375 31.09375 
C 14.796875 28.703125 5.90625 23.59375 5.90625 15 
C 5.90625 5.5 13.296875 -0.90625 24 -0.90625 
C 33.796875 -0.90625 42.703125 6.5 42.703125 16.296875 
C 42.703125 23.296875 35.796875 29.703125 29.90625 33 
C 29.59375 33.203125 29.5 33.5 29.90625 33.59375 
C 34.40625 36.40625 40.796875 40.796875 40.796875 48.40625 
C 40.796875 57.5 33.5 62.796875 24.796875 62.796875 
z
" id="Cochineal-Roman-56"/>
      </defs>
      <g style="fill:#222222;" transform="translate(348.604618 332.532381)scale(0.18 -0.18)">
       <use xlink:href="#Cochineal-Roman-56"/>
       <use x="48.499985" xlink:href="#Cochineal-Roman-48"/>
       <use x="96.999969" xlink:href="#Cochineal-Roman-48"/>
      </g>
     </g>
    </g>
    <g id="xtick_6">
     <g id="line2d_11">
      <g>
       <use style="fill:#222222;stroke:#222222;" x="429.904354" xlink:href="#m5455b66268" y="316.828944"/>
      </g>
     </g>
     <g id="line2d_12">
      <g>
       <use style="fill:#222222;stroke:#222222;" x="429.904354" xlink:href="#mf18bfe5197" y="42.718509"/>
      </g>
     </g>
     <g id="text_6">
      <!-- 1000 -->
      <defs>
       <path d="M 21.796875 11.296875 
C 21.796875 8.40625 21.703125 5.703125 21.203125 4.09375 
C 20.90625 3 16.203125 2.5 15 2.5 
C 14.59375 2 14.5 0.203125 15 -0.296875 
C 19 -0.09375 21.59375 0.203125 25.40625 0.203125 
C 29.203125 0.203125 32.296875 -0.09375 36.296875 -0.296875 
C 36.796875 0.203125 36.703125 2 36.296875 2.5 
C 35.09375 2.5 30.296875 3 30 4.09375 
C 29.5 5.703125 29.5 8.40625 29.5 11.296875 
L 29.5 51.703125 
C 29.5 57.703125 30.296875 61.09375 30.296875 61.09375 
C 30.203125 61.59375 29.90625 62.703125 29.296875 62.703125 
L 29.09375 62.703125 
C 28.796875 62.703125 20.09375 58.40625 12.09375 54.796875 
C 11.796875 54.703125 12 54.40625 12 54.203125 
C 12 53.5 12.40625 52.90625 12.90625 52.5 
C 14.5 53.09375 18.296875 54.5 19.796875 54.5 
C 21.203125 54.5 21.796875 53.59375 21.796875 50.796875 
z
" id="Cochineal-Roman-49"/>
      </defs>
      <g style="fill:#222222;" transform="translate(412.444354 332.532381)scale(0.18 -0.18)">
       <use xlink:href="#Cochineal-Roman-49"/>
       <use x="48.499985" xlink:href="#Cochineal-Roman-48"/>
       <use x="96.999969" xlink:href="#Cochineal-Roman-48"/>
       <use x="145.499954" xlink:href="#Cochineal-Roman-48"/>
      </g>
     </g>
    </g>
    <g id="xtick_7">
     <g id="line2d_13">
      <g>
       <use style="fill:#222222;stroke:#222222;" x="498.109091" xlink:href="#m5455b66268" y="316.828944"/>
      </g>
     </g>
     <g id="line2d_14">
      <g>
       <use style="fill:#222222;stroke:#222222;" x="498.109091" xlink:href="#mf18bfe5197" y="42.718509"/>
      </g>
     </g>
     <g id="text_7">
      <!-- 1200 -->
      <g style="fill:#222222;" transform="translate(480.649091 332.532381)scale(0.18 -0.18)">
       <use xlink:href="#Cochineal-Roman-49"/>
       <use x="48.499985" xlink:href="#Cochineal-Roman-50"/>
       <use x="96.999969" xlink:href="#Cochineal-Roman-48"/>
       <use x="145.499954" xlink:href="#Cochineal-Roman-48"/>
      </g>
     </g>
    </g>
    <g id="text_8">
     <!-- $\ell$ -->
     <defs>
      <path d="M 2.390625 7.421875 
Q 1.953125 7.421875 1.46875 7.953125 
Q 0.984375 8.5 0.984375 8.984375 
Q 0.984375 9.8125 9.28125 17.390625 
Q 9.28125 17.828125 9.25 18.109375 
Q 9.234375 18.40625 9.1875 18.703125 
Q 9.1875 23 9.859375 27.46875 
Q 10.546875 31.9375 11.734375 36.375 
Q 12.9375 40.828125 14.734375 45.65625 
Q 16.546875 50.484375 18.40625 54.109375 
Q 21.625 60.6875 25.4375 65.59375 
Q 29.25 70.515625 33.890625 70.515625 
Q 37.0625 70.515625 38.421875 68.328125 
Q 39.796875 66.15625 39.796875 62.890625 
Q 39.796875 44.578125 15.484375 19.828125 
Q 15.09375 15.53125 15.09375 13.71875 
Q 15.09375 1.21875 20.796875 1.21875 
Q 23.25 1.21875 25.65625 2.515625 
Q 28.078125 3.8125 29.8125 5.328125 
Q 31.546875 6.84375 34.625 9.8125 
Q 34.8125 10.015625 35.203125 10.015625 
Q 35.75 10.015625 36.234375 9.421875 
Q 36.71875 8.84375 36.71875 8.296875 
Q 36.71875 7.953125 36.28125 7.625 
Q 31.84375 3.265625 28.265625 0.875 
Q 24.703125 -1.515625 20.609375 -1.515625 
Q 15.328125 -1.515625 12.765625 3.015625 
Q 10.203125 7.5625 9.515625 13.8125 
Q 6.84375 11.140625 2.984375 7.625 
Q 2.875 7.421875 2.390625 7.421875 
z
M 16.3125 24.609375 
Q 21.625 30.28125 26.265625 36.53125 
Q 30.90625 42.78125 34 49.6875 
Q 37.109375 56.59375 37.109375 63.1875 
Q 37.109375 67.921875 33.796875 67.921875 
Q 30.21875 67.921875 26.5 59.390625 
Q 22.796875 50.875 20.15625 40.96875 
Q 17.53125 31.0625 16.3125 24.609375 
z
" id="Cmmi10-96"/>
     </defs>
     <g transform="translate(290.58 355.424569)scale(0.22 -0.22)">
      <use transform="translate(0 0.484375)" xlink:href="#Cmmi10-96"/>
     </g>
    </g>
   </g>
   <g id="matplotlib.axis_2">
    <g id="ytick_1">
     <g id="line2d_15">
      <defs>
       <path d="M 0 0 
L 8 0 
" id="m6b3e51a115" style="stroke:#222222;"/>
      </defs>
      <g>
       <use style="fill:#222222;stroke:#222222;" x="72" xlink:href="#m6b3e51a115" y="282.56514"/>
      </g>
     </g>
     <g id="line2d_16">
      <defs>
       <path d="M 0 0 
L -8 0 
" id="me49a5f01f5" style="stroke:#222222;"/>
      </defs>
      <g>
       <use style="fill:#222222;stroke:#222222;" x="518.4" xlink:href="#me49a5f01f5" y="282.56514"/>
      </g>
     </g>
     <g id="text_9">
      <!-- −0.2 -->
      <defs>
       <path d="M 51.40625 21.296875 
C 52.796875 22 54 26.796875 52.59375 26.796875 
L 8.796875 26.796875 
C 7.40625 26.296875 6 21.296875 7.203125 21.296875 
z
" id="Cochineal-Roman-8722"/>
       <path d="M 4.703125 4.40625 
C 4.703125 1.5 7.296875 -1.09375 10.203125 -1.09375 
C 13.09375 -1.09375 15.40625 1.5 15.40625 4.40625 
C 15.40625 7.296875 13.09375 9.703125 10.203125 9.703125 
C 7.296875 9.703125 4.703125 7.296875 4.703125 4.40625 
z
" id="Cochineal-Roman-46"/>
      </defs>
      <g style="fill:#222222;" transform="translate(36.676563 288.666858)scale(0.18 -0.18)">
       <use xlink:href="#Cochineal-Roman-8722"/>
       <use x="59.599991" xlink:href="#Cochineal-Roman-48"/>
       <use x="108.099976" xlink:href="#Cochineal-Roman-46"/>
       <use x="128.299973" xlink:href="#Cochineal-Roman-50"/>
      </g>
     </g>
    </g>
    <g id="ytick_2">
     <g id="line2d_17">
      <g>
       <use style="fill:#222222;stroke:#222222;" x="72" xlink:href="#m6b3e51a115" y="214.037531"/>
      </g>
     </g>
     <g id="line2d_18">
      <g>
       <use style="fill:#222222;stroke:#222222;" x="518.4" xlink:href="#me49a5f01f5" y="214.037531"/>
      </g>
     </g>
     <g id="text_10">
      <!-- 0.0 -->
      <g style="fill:#222222;" transform="translate(47.403437 220.13925)scale(0.18 -0.18)">
       <use xlink:href="#Cochineal-Roman-48"/>
       <use x="48.499985" xlink:href="#Cochineal-Roman-46"/>
       <use x="68.699982" xlink:href="#Cochineal-Roman-48"/>
      </g>
     </g>
    </g>
    <g id="ytick_3">
     <g id="line2d_19">
      <g>
       <use style="fill:#222222;stroke:#222222;" x="72" xlink:href="#m6b3e51a115" y="145.509922"/>
      </g>
     </g>
     <g id="line2d_20">
      <g>
       <use style="fill:#222222;stroke:#222222;" x="518.4" xlink:href="#me49a5f01f5" y="145.509922"/>
      </g>
     </g>
     <g id="text_11">
      <!-- 0.2 -->
      <g style="fill:#222222;" transform="translate(47.403437 151.611641)scale(0.18 -0.18)">
       <use xlink:href="#Cochineal-Roman-48"/>
       <use x="48.499985" xlink:href="#Cochineal-Roman-46"/>
       <use x="68.699982" xlink:href="#Cochineal-Roman-50"/>
      </g>
     </g>
    </g>
    <g id="ytick_4">
     <g id="line2d_21">
      <g>
       <use style="fill:#222222;stroke:#222222;" x="72" xlink:href="#m6b3e51a115" y="76.982314"/>
      </g>
     </g>
     <g id="line2d_22">
      <g>
       <use style="fill:#222222;stroke:#222222;" x="518.4" xlink:href="#me49a5f01f5" y="76.982314"/>
      </g>
     </g>
     <g id="text_12">
      <!-- 0.4 -->
      <g style="fill:#222222;" transform="translate(47.403437 83.084032)scale(0.18 -0.18)">
       <use xlink:href="#Cochineal-Roman-48"/>
       <use x="48.499985" xlink:href="#Cochineal-Roman-46"/>
       <use x="68.699982" xlink:href="#Cochineal-Roman-52"/>
      </g>
     </g>
    </g>
    <g id="text_13">
     <!-- $\ell^2 C_{\ell}^{TT}$ -->
     <defs>
      <path d="M 4.984375 0 
L 4.984375 2.6875 
Q 4.984375 2.9375 5.171875 3.21875 
L 20.703125 20.40625 
Q 24.21875 24.21875 26.40625 26.796875 
Q 28.609375 29.390625 30.75 32.765625 
Q 32.90625 36.140625 34.15625 39.625 
Q 35.40625 43.109375 35.40625 47.015625 
Q 35.40625 51.125 33.890625 54.859375 
Q 32.375 58.59375 29.375 60.84375 
Q 26.375 63.09375 22.125 63.09375 
Q 17.78125 63.09375 14.3125 60.46875 
Q 10.84375 57.859375 9.421875 53.71875 
Q 9.8125 53.8125 10.5 53.8125 
Q 12.75 53.8125 14.328125 52.296875 
Q 15.921875 50.78125 15.921875 48.390625 
Q 15.921875 46.09375 14.328125 44.5 
Q 12.75 42.921875 10.5 42.921875 
Q 8.15625 42.921875 6.5625 44.546875 
Q 4.984375 46.1875 4.984375 48.390625 
Q 4.984375 52.15625 6.390625 55.4375 
Q 7.8125 58.734375 10.46875 61.296875 
Q 13.140625 63.875 16.484375 65.234375 
Q 19.828125 66.609375 23.578125 66.609375 
Q 29.296875 66.609375 34.21875 64.1875 
Q 39.15625 61.765625 42.03125 57.34375 
Q 44.921875 52.9375 44.921875 47.015625 
Q 44.921875 42.671875 43.015625 38.765625 
Q 41.109375 34.859375 38.125 31.65625 
Q 35.15625 28.46875 30.515625 24.40625 
Q 25.875 20.359375 24.421875 19 
L 13.09375 8.109375 
L 22.703125 8.109375 
Q 29.78125 8.109375 34.546875 8.21875 
Q 39.3125 8.34375 39.59375 8.59375 
Q 40.765625 9.859375 42 17.828125 
L 44.921875 17.828125 
L 42.09375 0 
z
" id="Cmr10-50"/>
      <path d="M 14.59375 21.578125 
Q 14.59375 15.578125 16.90625 11.015625 
Q 19.234375 6.453125 23.65625 3.875 
Q 28.078125 1.3125 34.078125 1.3125 
Q 40.375 1.3125 46.203125 4.53125 
Q 52.046875 7.765625 56.171875 13.15625 
Q 60.296875 18.5625 61.8125 24.609375 
Q 62.015625 25.203125 62.59375 25.203125 
L 63.8125 25.203125 
Q 64.203125 25.203125 64.453125 24.921875 
Q 64.703125 24.65625 64.703125 24.3125 
Q 64.703125 24.21875 64.59375 24.03125 
Q 62.890625 17.09375 57.984375 11.015625 
Q 53.078125 4.9375 46.234375 1.359375 
Q 39.40625 -2.203125 32.171875 -2.203125 
Q 24.359375 -2.203125 18.15625 1.3125 
Q 11.96875 4.828125 8.515625 11.078125 
Q 5.078125 17.328125 5.078125 25.203125 
Q 5.078125 33.59375 8.828125 41.8125 
Q 12.59375 50.046875 18.9375 56.46875 
Q 25.296875 62.890625 33.421875 66.703125 
Q 41.546875 70.515625 49.90625 70.515625 
Q 53.21875 70.515625 56.25 69.5 
Q 59.28125 68.5 61.859375 66.453125 
Q 64.453125 64.40625 66.109375 61.71875 
L 74.03125 70.3125 
Q 74.03125 70.515625 74.515625 70.515625 
L 75.09375 70.515625 
Q 75.484375 70.515625 75.734375 70.171875 
Q 75.984375 69.828125 75.984375 69.484375 
L 69.1875 42.484375 
Q 69.1875 41.796875 68.40625 41.796875 
L 66.609375 41.796875 
Q 65.828125 41.796875 65.828125 42.921875 
Q 66.21875 45.125 66.21875 48.1875 
Q 66.21875 53.078125 64.546875 57.390625 
Q 62.890625 61.71875 59.390625 64.359375 
Q 55.90625 67 50.875 67 
Q 42.71875 67 35.9375 62.890625 
Q 29.15625 58.796875 24.4375 52.125 
Q 19.734375 45.453125 17.15625 37.328125 
Q 14.59375 29.203125 14.59375 21.578125 
z
" id="Cmmi10-67"/>
      <path d="M 4.59375 1.3125 
Q 4.640625 1.5625 4.8125 2.1875 
Q 4.984375 2.828125 5.25 3.171875 
Q 5.515625 3.515625 6 3.515625 
Q 14.59375 3.515625 17.390625 4 
Q 20.0625 4.6875 20.609375 6.890625 
L 34.28125 61.8125 
Q 34.71875 63.03125 34.71875 64.015625 
Q 34.71875 64.796875 31.203125 64.796875 
L 25.390625 64.796875 
Q 18.703125 64.796875 15.0625 62.734375 
Q 11.421875 60.6875 9.71875 57.3125 
Q 8.015625 53.953125 5.328125 46.296875 
Q 4.984375 45.40625 4.296875 45.40625 
L 3.421875 45.40625 
Q 2.390625 45.40625 2.390625 46.6875 
L 9.515625 67.390625 
Q 9.71875 68.3125 10.5 68.3125 
L 69.578125 68.3125 
Q 70.609375 68.3125 70.609375 67 
L 67.28125 46.296875 
Q 67.28125 46 66.9375 45.703125 
Q 66.609375 45.40625 66.3125 45.40625 
L 65.375 45.40625 
Q 64.40625 45.40625 64.40625 46.6875 
Q 65.484375 53.765625 65.484375 56.6875 
Q 65.484375 60.203125 64.015625 62 
Q 62.546875 63.8125 60.203125 64.296875 
Q 57.859375 64.796875 54.109375 64.796875 
L 48.1875 64.796875 
Q 45.515625 64.796875 44.578125 64.296875 
Q 43.65625 63.8125 43.015625 61.375 
L 29.296875 6.5 
Q 29.25 6.296875 29.21875 6.09375 
Q 29.203125 5.90625 29.109375 5.609375 
Q 29.109375 4.34375 30.609375 4 
Q 33.203125 3.515625 41.703125 3.515625 
Q 42.671875 3.515625 42.671875 2.203125 
Q 42.328125 0.78125 42.125 0.390625 
Q 41.9375 0 41.015625 0 
L 5.609375 0 
Q 4.59375 0 4.59375 1.3125 
z
" id="Cmmi10-84"/>
     </defs>
     <g transform="translate(26.736562 209.143727)rotate(-90)scale(0.22 -0.22)">
      <use transform="translate(0 0.917188)" xlink:href="#Cmmi10-96"/>
      <use transform="translate(53.43375 39.18125)scale(0.7)" xlink:href="#Cmr10-50"/>
      <use transform="translate(94.811094 0.917188)" xlink:href="#Cmmi10-67"/>
      <use transform="translate(178.03 39.18125)scale(0.7)" xlink:href="#Cmmi10-84"/>
      <use transform="translate(218.908906 39.18125)scale(0.7)" xlink:href="#Cmmi10-84"/>
      <use transform="translate(166.197812 -24.592187)scale(0.7)" xlink:href="#Cmmi10-96"/>
     </g>
    </g>
   </g>
   <g id="line2d_23">
    <path clip-path="url(#pb0f20b4186)" d="M 92.290909 196.005777 
L 93.655004 194.73503 
L 95.701146 192.442689 
L 99.111383 188.151842 
L 103.885714 181.707103 
L 107.295951 176.797436 
L 110.706188 171.489299 
L 113.434377 166.856402 
L 116.162567 161.81424 
L 118.890756 156.328342 
L 121.618946 150.395238 
L 125.029183 142.399691 
L 129.121467 132.138854 
L 140.034225 104.274498 
L 142.762414 98.038791 
L 145.490604 92.423293 
L 147.536746 88.713833 
L 149.582888 85.498312 
L 150.946982 83.654019 
L 152.311077 82.06558 
L 153.675172 80.744713 
L 155.039267 79.701046 
L 156.403361 78.94246 
L 157.767456 78.474005 
L 159.131551 78.299634 
L 160.495646 78.420131 
L 161.85974 78.835262 
L 163.223835 79.542562 
L 164.58793 80.536738 
L 165.952024 81.810518 
L 167.316119 83.355543 
L 168.680214 85.16116 
L 170.726356 88.330481 
L 172.772498 92.003995 
L 174.81864 96.128822 
L 177.54683 102.213264 
L 180.957066 110.5245 
L 186.413445 124.632786 
L 191.187777 136.805213 
L 194.598014 144.87485 
L 197.326203 150.734442 
L 199.372345 154.703875 
L 201.418487 158.259141 
L 203.464629 161.369447 
L 205.510772 164.014216 
L 207.556914 166.175553 
L 208.921008 167.346092 
L 210.285103 168.300157 
L 211.649198 169.040025 
L 213.013293 169.570221 
L 214.377387 169.897366 
L 215.741482 170.028369 
L 217.105577 169.972307 
L 218.469672 169.737247 
L 220.515814 169.074478 
L 222.561956 168.078662 
L 224.608098 166.798365 
L 226.65424 165.281992 
L 229.382429 162.978208 
L 233.474714 159.189444 
L 238.931092 154.141172 
L 241.659282 151.866931 
L 244.387471 149.884828 
L 246.433613 148.629567 
L 248.479756 147.600641 
L 250.525898 146.814231 
L 252.57204 146.279081 
L 254.618182 145.997249 
L 256.664324 145.964693 
L 258.710466 146.171212 
L 260.756608 146.600925 
L 262.80275 147.232925 
L 265.53094 148.345869 
L 268.941176 150.064522 
L 275.079603 153.584491 
L 279.171887 155.818027 
L 281.900076 157.08704 
L 284.628266 158.091309 
L 286.674408 158.634586 
L 288.72055 158.972456 
L 290.766692 159.088138 
L 292.812834 158.969857 
L 294.858976 158.611482 
L 296.905118 158.012416 
L 298.951261 157.177628 
L 300.997403 156.117505 
L 303.043545 154.847239 
L 305.771734 152.864132 
L 309.181971 149.99864 
L 312.592208 146.846055 
L 321.458824 138.483542 
L 324.86906 135.686963 
L 327.59725 133.781741 
L 329.643392 132.601451 
L 331.689534 131.660585 
L 333.735676 130.980203 
L 335.781818 130.578122 
L 337.82796 130.467336 
L 339.874102 130.65458 
L 341.920244 131.14202 
L 343.966387 131.9285 
L 346.012529 133.006435 
L 348.058671 134.362849 
L 350.104813 135.981699 
L 352.833002 138.511609 
L 355.561192 141.409835 
L 358.971429 145.437474 
L 363.063713 150.67104 
L 372.612376 163.042292 
L 376.022613 167.021689 
L 378.750802 169.894045 
L 381.478992 172.431903 
L 383.525134 174.08883 
L 385.571276 175.523476 
L 387.617418 176.727346 
L 389.66356 177.697657 
L 391.709702 178.431807 
L 393.755844 178.934926 
L 395.801986 179.215964 
L 397.848128 179.288172 
L 399.89427 179.169037 
L 402.62246 178.737169 
L 405.350649 178.044003 
L 408.078839 177.145784 
L 411.489076 175.82925 
L 421.719786 171.69337 
L 425.130023 170.616598 
L 427.858212 169.967563 
L 430.586402 169.540188 
L 433.314591 169.355454 
L 436.042781 169.424432 
L 438.77097 169.748411 
L 441.49916 170.319183 
L 444.227349 171.119466 
L 447.637586 172.405051 
L 451.047823 173.94353 
L 455.140107 176.017698 
L 466.052865 181.695891 
L 469.463102 183.207092 
L 472.873338 184.471017 
L 476.283575 185.443461 
L 479.011765 185.992874 
L 481.739954 186.330326 
L 484.468144 186.457027 
L 487.196333 186.381224 
L 490.60657 186.024357 
L 494.016807 185.421034 
L 498.109091 184.445648 
L 498.109091 184.445648 
" style="fill:none;stroke:#000000;stroke-linecap:square;stroke-width:2;"/>
   </g>
   <g id="line2d_24">
    <path clip-path="url(#pb0f20b4186)" d="M 92.290909 214.30513 
L 95.701146 211.974666 
L 97.747288 210.271862 
L 99.79343 208.282147 
L 101.839572 206.02008 
L 104.567762 202.601152 
L 107.295951 198.793265 
L 110.706188 193.559451 
L 114.116425 187.88449 
L 118.208709 180.601137 
L 121.618946 174.191898 
L 127.757372 161.902853 
L 131.849656 153.219897 
L 135.94194 144.189413 
L 150.946982 110.086471 
L 156.403361 99.307164 
L 157.767456 96.940611 
L 159.131551 94.693902 
L 160.495646 92.648607 
L 162.541788 90.049324 
L 163.223835 89.197404 
L 165.952024 86.791355 
L 166.634072 86.451307 
L 167.316119 85.982071 
L 170.044309 85.336887 
L 171.408403 85.496384 
L 173.454545 86.442073 
L 174.136593 86.848604 
L 175.500688 88.093658 
L 177.54683 90.65864 
L 178.228877 91.642527 
L 180.957066 96.719208 
L 183.685256 103.336134 
L 186.413445 111.477935 
L 189.141635 121.05744 
L 191.187777 129.100778 
L 193.915966 140.769957 
L 198.690298 163.546462 
L 213.013293 237.272881 
L 217.787624 258.719766 
L 220.515814 269.207828 
L 221.879908 274.032448 
L 223.244003 278.571939 
L 223.92605 280.452415 
L 224.608098 282.675881 
L 228.018335 290.91512 
L 228.700382 292.036413 
L 229.382429 293.451464 
L 230.064477 294.521992 
L 230.746524 295.379918 
L 231.428571 296.544053 
L 232.110619 297.129457 
L 232.792666 297.897397 
L 233.474714 298.481364 
L 234.838808 299.376764 
L 235.520856 299.419615 
L 236.202903 299.766837 
L 236.88495 299.776193 
L 237.566998 299.549558 
L 238.249045 299.688289 
L 238.931092 299.212905 
L 240.295187 298.616091 
L 240.977235 297.904309 
L 241.659282 297.462681 
L 243.705424 295.123157 
L 244.387471 294.00875 
L 245.069519 293.246471 
L 246.433613 290.819307 
L 247.115661 289.88496 
L 247.797708 288.347028 
L 249.161803 285.927862 
L 249.84385 284.251203 
L 250.525898 283.041214 
L 255.982277 270.42769 
L 257.346371 267.012066 
L 258.028419 265.50166 
L 258.710466 263.654308 
L 260.074561 260.587951 
L 260.756608 258.788232 
L 261.438655 257.445479 
L 262.80275 254.146701 
L 263.484798 252.917321 
L 264.848892 249.822318 
L 265.53094 248.639462 
L 266.212987 247.00104 
L 267.577082 244.721315 
L 268.259129 243.236816 
L 268.941176 242.3368 
L 270.305271 239.966893 
L 270.987319 239.293792 
L 272.351413 237.235021 
L 273.033461 236.725058 
L 273.715508 235.749692 
L 274.397555 235.090929 
L 275.079603 234.722818 
L 275.76165 233.892873 
L 277.125745 233.261586 
L 277.807792 232.642152 
L 279.171887 232.373802 
L 279.853934 231.97093 
L 280.535982 232.117252 
L 281.900076 231.925226 
L 282.582124 232.236672 
L 283.946218 232.396141 
L 284.628266 232.859471 
L 285.992361 233.3453 
L 286.674408 233.935704 
L 288.038503 234.727784 
L 288.72055 235.493345 
L 290.084645 236.446273 
L 290.766692 237.399095 
L 292.130787 238.481864 
L 292.812834 239.587681 
L 294.176929 240.783882 
L 294.858976 241.987085 
L 295.541024 242.461063 
L 296.223071 243.234789 
L 296.905118 244.405594 
L 297.587166 244.88679 
L 298.269213 245.750653 
L 298.951261 246.816606 
L 299.633308 247.346153 
L 300.315355 248.173269 
L 300.997403 249.185692 
L 302.361497 250.390613 
L 303.043545 251.405384 
L 304.407639 252.392362 
L 305.089687 253.440501 
L 306.453782 254.142074 
L 307.135829 255.132425 
L 307.817876 255.214061 
L 308.499924 255.53947 
L 309.181971 256.297967 
L 309.864018 256.324243 
L 310.546066 256.502486 
L 311.228113 256.993663 
L 311.91016 257.018653 
L 312.592208 256.863113 
L 313.274255 257.230608 
L 313.956303 257.158525 
L 314.63835 256.62483 
L 315.320397 256.940252 
L 316.002445 256.649457 
L 316.684492 255.932027 
L 317.366539 256.019728 
L 318.048587 255.507448 
L 318.730634 254.700401 
L 319.412681 254.375437 
L 320.094729 253.838979 
L 320.776776 252.784446 
L 321.458824 252.117124 
L 322.140871 251.640354 
L 322.822918 250.218109 
L 323.504966 249.350206 
L 324.187013 248.694795 
L 324.86906 247.11346 
L 326.233155 245.079413 
L 327.59725 242.082037 
L 328.279297 241.035084 
L 328.961345 239.517477 
L 329.643392 237.598133 
L 330.325439 236.556725 
L 331.007487 234.869427 
L 331.689534 232.875482 
L 332.371581 231.536549 
L 333.053629 229.895035 
L 334.417723 226.072214 
L 335.099771 224.661037 
L 336.463866 220.539793 
L 337.145913 219.105234 
L 338.510008 214.917843 
L 339.874102 211.346059 
L 340.55615 209.086222 
L 341.920244 205.750871 
L 342.602292 203.385008 
L 343.966387 200.044268 
L 345.330481 196.057865 
L 346.012529 194.616554 
L 348.058671 189.462024 
L 350.104813 184.476571 
L 350.78686 183.246868 
L 352.150955 180.088808 
L 352.833002 179.137541 
L 354.197097 176.382776 
L 356.925286 172.374206 
L 357.607334 171.797789 
L 358.289381 170.754087 
L 358.971429 170.085095 
L 360.335523 169.242352 
L 361.017571 168.446705 
L 362.381665 168.177115 
L 363.063713 167.800363 
L 363.74576 167.670694 
L 365.109855 167.993517 
L 365.791902 167.818107 
L 366.47395 168.354623 
L 368.520092 169.391349 
L 369.202139 170.301561 
L 370.566234 171.396133 
L 372.612376 174.267992 
L 373.294423 175.154621 
L 373.976471 176.655449 
L 375.340565 178.812604 
L 376.022613 180.179567 
L 376.70466 181.80741 
L 377.386707 182.998888 
L 378.068755 184.456285 
L 379.43285 187.785224 
L 380.796944 191.006916 
L 381.478992 193.066355 
L 382.161039 194.506958 
L 385.571276 203.923839 
L 386.935371 207.811371 
L 387.617418 209.550148 
L 388.981513 213.847112 
L 389.66356 215.436974 
L 391.709702 221.534023 
L 392.391749 223.037633 
L 393.755844 227.24968 
L 395.119939 230.497206 
L 395.801986 232.744298 
L 397.848128 237.550966 
L 398.530176 239.514861 
L 399.89427 242.060262 
L 400.576318 243.889346 
L 401.258365 245.37937 
L 401.940413 246.383375 
L 402.62246 247.627103 
L 403.304507 249.299221 
L 404.668602 251.086105 
L 406.032697 253.60335 
L 406.714744 254.003266 
L 407.396791 254.788566 
L 408.760886 256.652653 
L 409.442934 256.713251 
L 410.807028 258.082948 
L 411.489076 258.434858 
L 412.171123 258.26945 
L 412.85317 258.859994 
L 413.535218 259.168179 
L 414.217265 259.012369 
L 414.899312 258.681794 
L 415.58136 259.064725 
L 416.263407 258.980149 
L 416.945455 258.416764 
L 417.627502 258.008626 
L 418.309549 258.100432 
L 418.991597 257.561703 
L 419.673644 256.686033 
L 420.355691 256.286151 
L 421.037739 256.024798 
L 422.401833 253.976028 
L 423.083881 253.536901 
L 423.765928 252.888741 
L 425.130023 250.453748 
L 425.81207 249.868374 
L 426.494118 248.830029 
L 427.858212 246.209586 
L 428.54026 245.455395 
L 430.586402 241.353249 
L 431.268449 240.487623 
L 432.632544 237.298798 
L 433.314591 236.086491 
L 433.996639 235.12385 
L 435.360733 231.820708 
L 436.724828 229.529156 
L 437.406875 227.743585 
L 438.088923 226.323062 
L 439.453018 223.960302 
L 440.135065 222.217222 
L 441.49916 219.841048 
L 442.181207 218.662119 
L 442.863254 216.978046 
L 443.545302 215.798451 
L 444.227349 214.873279 
L 444.909396 213.752908 
L 445.591444 212.191487 
L 446.273491 211.183806 
L 446.955539 210.397349 
L 447.637586 209.346116 
L 448.319633 208.037302 
L 451.72987 203.932492 
L 452.411917 203.504205 
L 453.776012 201.916817 
L 454.45806 201.481155 
L 455.140107 201.321863 
L 456.504202 200.123832 
L 457.186249 199.899891 
L 457.868296 199.980029 
L 458.550344 199.526593 
L 459.232391 199.258233 
L 459.914439 199.173699 
L 460.596486 199.538849 
L 461.278533 199.31975 
L 461.960581 199.259437 
L 462.642628 199.364231 
L 463.324675 199.983384 
L 464.006723 199.938147 
L 464.68877 200.13175 
L 465.370817 200.443544 
L 466.052865 201.198315 
L 466.734912 201.397212 
L 468.099007 202.273778 
L 468.781054 203.175433 
L 470.145149 204.06409 
L 470.827196 204.800846 
L 471.509244 205.80772 
L 472.873338 206.931204 
L 474.919481 209.743521 
L 475.601528 210.23446 
L 477.64767 213.392736 
L 478.329717 213.822588 
L 480.375859 217.166795 
L 481.057907 217.628612 
L 483.104049 220.964811 
L 483.786096 221.401589 
L 484.468144 222.288784 
L 485.150191 223.541901 
L 485.832238 224.52609 
L 486.514286 225.02915 
L 487.196333 225.691741 
L 487.87838 226.911963 
L 488.560428 227.794315 
L 489.242475 228.343435 
L 489.924523 228.695356 
L 490.60657 229.875494 
L 491.288617 230.650643 
L 491.970665 231.107325 
L 492.652712 231.282692 
L 493.334759 232.257762 
L 494.016807 232.937052 
L 494.698854 233.286175 
L 495.380901 233.298119 
L 496.744996 234.638112 
L 497.427044 234.720278 
L 498.109091 234.63837 
L 498.109091 234.63837 
" style="fill:none;stroke:#e69f00;stroke-linecap:square;stroke-width:2;"/>
   </g>
   <g id="patch_3">
    <path d="M 72 316.828944 
L 72 42.718509 
" style="fill:none;stroke:#333333;stroke-linecap:square;stroke-linejoin:miter;stroke-width:0.8;"/>
   </g>
   <g id="patch_4">
    <path d="M 518.4 316.828944 
L 518.4 42.718509 
" style="fill:none;stroke:#333333;stroke-linecap:square;stroke-linejoin:miter;stroke-width:0.8;"/>
   </g>
   <g id="patch_5">
    <path d="M 72 316.828944 
L 518.4 316.828944 
" style="fill:none;stroke:#333333;stroke-linecap:square;stroke-linejoin:miter;stroke-width:0.8;"/>
   </g>
   <g id="patch_6">
    <path d="M 72 42.718509 
L 518.4 42.718509 
" style="fill:none;stroke:#333333;stroke-linecap:square;stroke-linejoin:miter;stroke-width:0.8;"/>
   </g>
   <g id="legend_1">
    <g id="line2d_25">
     <path d="M 359.1 65.218509 
L 395.1 65.218509 
" style="fill:none;stroke:#000000;stroke-linecap:square;stroke-width:2;"/>
    </g>
    <g id="line2d_26"/>
    <g id="text_14">
     <!-- $C_{\ell}$ -->
     <g transform="translate(409.5 71.518509)scale(0.18 -0.18)">
      <use transform="translate(0 0.484375)" xlink:href="#Cmmi10-67"/>
      <use transform="translate(71.386719 -16.521875)scale(0.7)" xlink:href="#Cmmi10-96"/>
     </g>
    </g>
    <g id="line2d_27">
     <path d="M 359.1 91.695384 
L 395.1 91.695384 
" style="fill:none;stroke:#e69f00;stroke-linecap:square;stroke-width:2;"/>
    </g>
    <g id="line2d_28"/>
    <g id="text_15">
     <!-- $\partial C_{\ell}/\partial\Omega_b / 10$ -->
     <defs>
      <path d="M 19.5 62.5 
L 18.5 64.5 
Q 22.296875 66.796875 28.296875 66.796875 
Q 47.09375 66.796875 47.09375 40.796875 
Q 47.09375 35.90625 46.296875 30.703125 
Q 45.5 25.5 43.390625 19.703125 
Q 41.296875 13.90625 38.09375 9.34375 
Q 34.90625 4.796875 29.59375 1.84375 
Q 24.296875 -1.09375 17.59375 -1.09375 
Q 10.703125 -1.09375 7.34375 3.5 
Q 4 8.09375 4 15.09375 
Q 4 26 11.546875 34.75 
Q 19.09375 43.5 29.703125 43.5 
Q 36.59375 43.5 39.296875 38.703125 
Q 40 42.59375 40 45.703125 
Q 40 53.40625 36.953125 58.59375 
Q 33.90625 63.796875 26.90625 63.796875 
Q 23.59375 63.796875 19.5 62.5 
z
M 36.703125 31.90625 
Q 36.703125 36.296875 34.84375 38.390625 
Q 33 40.5 30.59375 40.5 
Q 23.296875 40.5 17.6875 31.453125 
Q 12.09375 22.40625 12.09375 11.703125 
Q 12.09375 1.90625 18.796875 1.90625 
Q 24.203125 1.90625 28.546875 7.796875 
Q 32.90625 13.703125 35.203125 22.09375 
Q 36.703125 27.59375 36.703125 31.90625 
z
" id="STIXGeneral-Regular-8706"/>
      <path d="M 5.609375 -23 
Q 5.609375 -22.703125 5.71875 -22.609375 
L 40.484375 73.78125 
Q 40.671875 74.359375 41.15625 74.671875 
Q 41.65625 75 42.28125 75 
Q 43.171875 75 43.71875 74.453125 
Q 44.28125 73.921875 44.28125 73 
L 44.28125 72.609375 
L 9.515625 -23.78125 
Q 8.9375 -25 7.625 -25 
Q 6.78125 -25 6.1875 -24.40625 
Q 5.609375 -23.828125 5.609375 -23 
z
" id="Cmmi10-61"/>
      <path d="M 7.71875 0 
L 4.390625 16.609375 
L 7.328125 16.609375 
Q 7.859375 13.71875 8.296875 11.5 
Q 8.734375 9.28125 9.4375 8.375 
Q 10.15625 7.46875 11.71875 7.171875 
Q 13.28125 6.890625 16.890625 6.890625 
L 23 6.890625 
Q 21.53125 12.546875 15.6875 21.65625 
Q 9.859375 30.765625 7.734375 34.890625 
Q 5.609375 39.015625 5.609375 45.515625 
Q 5.609375 53.078125 10.09375 58.765625 
Q 14.59375 64.453125 21.703125 67.484375 
Q 28.8125 70.515625 36.078125 70.515625 
Q 43.3125 70.515625 50.40625 67.484375 
Q 57.515625 64.453125 62 58.71875 
Q 66.5 52.984375 66.5 45.515625 
Q 66.5 40.4375 64.640625 35.9375 
Q 62.796875 31.453125 59.90625 26.953125 
Q 57.03125 22.46875 53.6875 16.9375 
Q 50.34375 11.421875 49.125 6.890625 
L 55.171875 6.890625 
Q 58.84375 6.890625 60.453125 7.171875 
Q 62.0625 7.46875 62.734375 8.375 
Q 63.421875 9.28125 63.84375 11.5 
Q 64.265625 13.71875 64.796875 16.609375 
L 67.671875 16.609375 
L 64.40625 0 
L 46.6875 0 
Q 45.703125 0 45.703125 1.3125 
Q 45.703125 6.390625 46.9375 11.265625 
Q 48.1875 16.15625 50.625 23.09375 
Q 53.078125 30.03125 54.4375 35.328125 
Q 55.8125 40.625 55.8125 45.515625 
Q 55.8125 51.515625 53.46875 56.640625 
Q 51.125 61.765625 46.625 64.84375 
Q 42.140625 67.921875 36.078125 67.921875 
Q 26.953125 67.921875 21.625 61.40625 
Q 16.3125 54.890625 16.3125 45.515625 
Q 16.359375 40.375 17.53125 35.828125 
Q 18.703125 31.296875 21.3125 23.71875 
Q 23.921875 16.15625 25.171875 11.265625 
Q 26.421875 6.390625 26.421875 1.3125 
Q 26.421875 0 25.390625 0 
z
" id="Cmr10-173"/>
      <path d="M 17.28125 -1.125 
Q 11.234375 -1.125 7.859375 3.609375 
Q 4.5 8.34375 4.5 14.703125 
Q 4.5 15.625 4.953125 18.328125 
Q 5.421875 21.046875 5.421875 21.6875 
L 15.09375 60.5 
Q 15.484375 62.203125 15.578125 63.1875 
Q 15.578125 64.796875 9.078125 64.796875 
Q 8.109375 64.796875 8.109375 66.109375 
Q 8.15625 66.359375 8.328125 66.984375 
Q 8.5 67.625 8.765625 67.96875 
Q 9.03125 68.3125 9.515625 68.3125 
L 23 69.390625 
Q 24.21875 69.390625 24.21875 68.109375 
L 16.796875 38.625 
Q 22.46875 44.1875 28.21875 44.1875 
Q 32.46875 44.1875 35.515625 41.9375 
Q 38.578125 39.703125 40.09375 36.03125 
Q 41.609375 32.375 41.609375 28.21875 
Q 41.609375 23.390625 39.71875 18.234375 
Q 37.84375 13.09375 34.515625 8.671875 
Q 31.203125 4.25 26.75 1.5625 
Q 22.3125 -1.125 17.28125 -1.125 
z
M 17.484375 1.515625 
Q 20.90625 1.515625 23.875 4.375 
Q 26.859375 7.234375 28.71875 10.796875 
Q 30.71875 14.796875 32.453125 21.65625 
Q 34.1875 28.515625 34.1875 32.625 
Q 34.1875 36.1875 32.6875 38.890625 
Q 31.203125 41.609375 27.984375 41.609375 
Q 24.359375 41.609375 21.0625 38.9375 
Q 17.78125 36.28125 15.28125 32.625 
L 12.5 21.296875 
Q 10.890625 14.984375 10.796875 11.1875 
Q 10.796875 7.421875 12.421875 4.46875 
Q 14.0625 1.515625 17.484375 1.515625 
z
" id="Cmmi10-98"/>
      <path d="M 9.28125 0 
L 9.28125 3.515625 
Q 21.78125 3.515625 21.78125 6.6875 
L 21.78125 59.1875 
Q 16.609375 56.6875 8.6875 56.6875 
L 8.6875 60.203125 
Q 20.953125 60.203125 27.203125 66.609375 
L 28.609375 66.609375 
Q 28.953125 66.609375 29.265625 66.328125 
Q 29.59375 66.0625 29.59375 65.71875 
L 29.59375 6.6875 
Q 29.59375 3.515625 42.09375 3.515625 
L 42.09375 0 
z
" id="Cmr10-49"/>
      <path d="M 25 -2.203125 
Q 12.75 -2.203125 8.328125 7.875 
Q 3.90625 17.96875 3.90625 31.890625 
Q 3.90625 40.578125 5.484375 48.234375 
Q 7.078125 55.90625 11.78125 61.25 
Q 16.5 66.609375 25 66.609375 
Q 31.59375 66.609375 35.78125 63.375 
Q 39.984375 60.15625 42.1875 55.046875 
Q 44.390625 49.953125 45.1875 44.109375 
Q 46 38.28125 46 31.890625 
Q 46 23.296875 44.40625 15.796875 
Q 42.828125 8.296875 38.1875 3.046875 
Q 33.546875 -2.203125 25 -2.203125 
z
M 25 0.390625 
Q 30.5625 0.390625 33.296875 6.09375 
Q 36.03125 11.8125 36.671875 18.75 
Q 37.3125 25.6875 37.3125 33.5 
Q 37.3125 41.015625 36.671875 47.359375 
Q 36.03125 53.71875 33.3125 58.859375 
Q 30.609375 64.015625 25 64.015625 
Q 19.34375 64.015625 16.609375 58.828125 
Q 13.875 53.65625 13.234375 47.328125 
Q 12.59375 41.015625 12.59375 33.5 
Q 12.59375 27.9375 12.859375 23 
Q 13.140625 18.0625 14.3125 12.8125 
Q 15.484375 7.5625 18.09375 3.96875 
Q 20.703125 0.390625 25 0.390625 
z
" id="Cmr10-48"/>
     </defs>
     <g transform="translate(409.5 97.995384)scale(0.18 -0.18)">
      <use xlink:href="#STIXGeneral-Regular-8706"/>
      <use transform="translate(47.099991 0)" xlink:href="#Cmmi10-67"/>
      <use transform="translate(118.48671 -17.00625)scale(0.7)" xlink:href="#Cmmi10-96"/>
      <use transform="translate(153.985147 0)" xlink:href="#Cmmi10-61"/>
      <use transform="translate(203.985147 0)" xlink:href="#STIXGeneral-Regular-8706"/>
      <use transform="translate(251.085138 0)" xlink:href="#Cmr10-173"/>
      <use transform="translate(327.766075 -17.00625)scale(0.7)" xlink:href="#Cmmi10-98"/>
      <use transform="translate(364.187365 0)" xlink:href="#Cmmi10-61"/>
      <use transform="translate(414.187365 0)" xlink:href="#Cmr10-49"/>
      <use transform="translate(464.187365 0)" xlink:href="#Cmr10-48"/>
     </g>
    </g>
   </g>
  </g>
 </g>
 <defs>
  <clipPath id="pb0f20b4186">
   <rect height="274.110435" width="446.4" x="72" y="42.718509"/>
  </clipPath>
 </defs>
</svg>
